<svg width="17" height="16" viewBox="0 0 17 16" fill="none" xmlns="http://www.w3.org/2000/svg">
<path d="M15.24 6.20143C14.9707 5.92 14.6921 5.63 14.5871 5.375C14.49 5.14143 14.4843 4.75429 14.4786 4.37929C14.4679 3.68214 14.4564 2.89214 13.9071 2.34286C13.3579 1.79357 12.5679 1.78214 11.8707 1.77143C11.4957 1.76571 11.1086 1.76 10.875 1.66286C10.6207 1.55786 10.33 1.27929 10.0486 1.01C9.55571 0.536429 8.99571 0 8.25 0C7.50429 0 6.945 0.536429 6.45143 1.01C6.17 1.27929 5.88 1.55786 5.625 1.66286C5.39286 1.76 5.00429 1.76571 4.62929 1.77143C3.93214 1.78214 3.14214 1.79357 2.59286 2.34286C2.04357 2.89214 2.03571 3.68214 2.02143 4.37929C2.01571 4.75429 2.01 5.14143 1.91286 5.375C1.80786 5.62929 1.52929 5.92 1.26 6.20143C0.786429 6.69429 0.25 7.25429 0.25 8C0.25 8.74571 0.786429 9.305 1.26 9.79857C1.52929 10.08 1.80786 10.37 1.91286 10.625C2.01 10.8586 2.01571 11.2457 2.02143 11.6207C2.03214 12.3179 2.04357 13.1079 2.59286 13.6571C3.14214 14.2064 3.93214 14.2179 4.62929 14.2286C5.00429 14.2343 5.39143 14.24 5.625 14.3371C5.87929 14.4421 6.17 14.7207 6.45143 14.99C6.94429 15.4636 7.50429 16 8.25 16C8.99571 16 9.555 15.4636 10.0486 14.99C10.33 14.7207 10.62 14.4421 10.875 14.3371C11.1086 14.24 11.4957 14.2343 11.8707 14.2286C12.5679 14.2179 13.3579 14.2064 13.9071 13.6571C14.4564 13.1079 14.4679 12.3179 14.4786 11.6207C14.4843 11.2457 14.49 10.8586 14.5871 10.625C14.6921 10.3707 14.9707 10.08 15.24 9.79857C15.7136 9.30571 16.25 8.74571 16.25 8C16.25 7.25429 15.7136 6.695 15.24 6.20143ZM11.5114 6.69L7.51143 10.69C7.45836 10.7431 7.39534 10.7853 7.32597 10.814C7.2566 10.8428 7.18224 10.8576 7.10714 10.8576C7.03205 10.8576 6.95769 10.8428 6.88832 10.814C6.81895 10.7853 6.75593 10.7431 6.70286 10.69L4.98857 8.97571C4.88135 8.86849 4.82111 8.72307 4.82111 8.57143C4.82111 8.41979 4.88135 8.27437 4.98857 8.16714C5.09579 8.05992 5.24122 7.99968 5.39286 7.99968C5.54449 7.99968 5.68992 8.05992 5.79714 8.16714L7.10714 9.47786L10.7029 5.88143C10.7559 5.82834 10.819 5.78622 10.8883 5.75749C10.9577 5.72876 11.0321 5.71397 11.1071 5.71397C11.1822 5.71397 11.2566 5.72876 11.3259 5.75749C11.3953 5.78622 11.4583 5.82834 11.5114 5.88143C11.5645 5.93452 11.6066 5.99755 11.6354 6.06692C11.6641 6.13628 11.6789 6.21063 11.6789 6.28571C11.6789 6.3608 11.6641 6.43514 11.6354 6.50451C11.6066 6.57388 11.5645 6.63691 11.5114 6.69Z" fill="#FFB800"/>
</svg>
