<svg width="15" height="14" viewBox="0 0 15 14" fill="none" xmlns="http://www.w3.org/2000/svg">
<path d="M13.8663 5.42625C13.6306 5.18 13.3869 4.92625 13.295 4.70312C13.21 4.49875 13.205 4.16 13.2 3.83187C13.1906 3.22187 13.1806 2.53062 12.7 2.05C12.2194 1.56937 11.5281 1.55937 10.9181 1.55C10.59 1.545 10.2513 1.54 10.0469 1.455C9.82438 1.36312 9.57 1.11937 9.32375 0.88375C8.8925 0.469375 8.4025 0 7.75 0C7.0975 0 6.60812 0.469375 6.17625 0.88375C5.93 1.11937 5.67625 1.36312 5.45312 1.455C5.25 1.54 4.91 1.545 4.58187 1.55C3.97187 1.55937 3.28062 1.56937 2.8 2.05C2.31937 2.53062 2.3125 3.22187 2.3 3.83187C2.295 4.16 2.29 4.49875 2.205 4.70312C2.11312 4.92562 1.86937 5.18 1.63375 5.42625C1.21937 5.8575 0.75 6.3475 0.75 7C0.75 7.6525 1.21937 8.14187 1.63375 8.57375C1.86937 8.82 2.11312 9.07375 2.205 9.29688C2.29 9.50125 2.295 9.84 2.3 10.1681C2.30937 10.7781 2.31937 11.4694 2.8 11.95C3.28062 12.4306 3.97187 12.4406 4.58187 12.45C4.91 12.455 5.24875 12.46 5.45312 12.545C5.67562 12.6369 5.93 12.8806 6.17625 13.1163C6.6075 13.5306 7.0975 14 7.75 14C8.4025 14 8.89187 13.5306 9.32375 13.1163C9.57 12.8806 9.82375 12.6369 10.0469 12.545C10.2513 12.46 10.59 12.455 10.9181 12.45C11.5281 12.4406 12.2194 12.4306 12.7 11.95C13.1806 11.4694 13.1906 10.7781 13.2 10.1681C13.205 9.84 13.21 9.50125 13.295 9.29688C13.3869 9.07438 13.6306 8.82 13.8663 8.57375C14.2806 8.1425 14.75 7.6525 14.75 7C14.75 6.3475 14.2806 5.85812 13.8663 5.42625ZM10.6038 5.85375L7.10375 9.35375C7.05731 9.40024 7.00217 9.43712 6.94147 9.46228C6.88077 9.48744 6.81571 9.50039 6.75 9.50039C6.68429 9.50039 6.61923 9.48744 6.55853 9.46228C6.49783 9.43712 6.44269 9.40024 6.39625 9.35375L4.89625 7.85375C4.80243 7.75993 4.74972 7.63268 4.74972 7.5C4.74972 7.36732 4.80243 7.24007 4.89625 7.14625C4.99007 7.05243 5.11732 6.99972 5.25 6.99972C5.38268 6.99972 5.50993 7.05243 5.60375 7.14625L6.75 8.29313L9.89625 5.14625C9.94271 5.09979 9.99786 5.06294 10.0586 5.0378C10.1192 5.01266 10.1843 4.99972 10.25 4.99972C10.3157 4.99972 10.3808 5.01266 10.4414 5.0378C10.5021 5.06294 10.5573 5.09979 10.6038 5.14625C10.6502 5.1927 10.6871 5.24786 10.7122 5.30855C10.7373 5.36925 10.7503 5.4343 10.7503 5.5C10.7503 5.5657 10.7373 5.63075 10.7122 5.69145C10.6871 5.75214 10.6502 5.8073 10.6038 5.85375Z" fill="#14B8A6"/>
</svg>
